<svg width="851" height="452" viewBox="0 0 851 452" fill="none" xmlns="http://www.w3.org/2000/svg">
<path d="M82.2185 450.469H0L137.951 113.961H242.749L380.736 450.469H299.019L272.568 384.594L108.633 385.06L82.1827 450.434L82.2185 450.469ZM122.109 342.768H260.096L197.59 175.966C193.253 162.49 199.023 139.91 199.023 125.968H181.246C181.712 140.376 187.483 162.991 183.648 176.432L122.109 342.768Z" fill="#1E1E1E"/>
<path d="M406.329 451.664L462.384 423.314L557.9 26.4863L517.22 0H732.874C803.731 0 850.575 40.6792 850.575 89.9601C850.575 149.097 790.792 198.414 720.545 210.743L718.681 216.908C777.209 229.846 813.587 265.579 813.587 312.423C813.587 395.609 721.154 451.664 621.338 451.664H406.294H406.329ZM622.628 440.589C707.678 440.589 768.034 380.807 768.034 303.786C768.034 252.032 733.519 219.381 673.127 219.381H554.817L501.2 440.589H622.628ZM557.326 208.306H681.192C750.83 208.306 806.276 149.169 806.276 84.4406C806.276 41.9336 777.316 11.7199 727.39 11.7199H604.779L557.326 208.27V208.306Z" fill="#1E1E1E"/>
<path d="M363.627 186.882L373.555 142.727C374.666 137.781 372.336 132.691 367.821 130.326L336.926 114.054L386.207 99.5028C393.411 97.3882 399.862 93.374 404.987 87.8546L445.093 44.5949L435.165 88.7506C434.054 93.6966 436.384 98.786 440.9 101.151L471.794 117.423L422.513 131.974C415.309 134.089 408.858 138.103 403.733 143.623L363.627 186.882Z" fill="#1E1E1E"/>
</svg>
