<svg width="1679" height="386" viewBox="0 0 1679 386" fill="none" xmlns="http://www.w3.org/2000/svg">
<path d="M611.569 382.022L640.711 367.283L690.369 160.973L669.22 147.203H781.338C818.176 147.203 842.53 168.352 842.53 193.973C842.53 224.718 811.45 250.358 774.928 256.768L773.959 259.973C804.388 266.7 823.301 285.277 823.301 309.631C823.301 352.879 775.245 382.022 723.351 382.022H611.55H611.569ZM660.91 376.264H724.022C768.239 376.264 799.618 345.184 799.618 305.14C799.618 278.234 781.673 261.259 750.276 261.259H688.767L660.891 376.264H660.91ZM690.071 255.501H754.469C790.673 255.501 819.499 224.756 819.499 191.104C819.499 169.004 804.444 153.296 778.487 153.296H714.742L690.071 255.482V255.501Z" fill="white"/>
<path d="M940.04 217.677C971.121 217.677 988.096 242.664 981.686 281.105L981.369 283.024H879.183C876.612 292.956 875.009 303.204 875.009 313.453C875.009 344.198 888.779 370.154 919.86 370.154C944.214 370.471 965.68 353.813 980.4 322.751C964.375 364.08 940.04 386.179 910.879 385.862C871.804 385.546 854.494 356.068 854.494 321.801C854.494 270.54 890.046 217.677 940.021 217.677H940.04ZM952.208 278.552C958.618 278.552 963.09 274.378 964.711 266.385C968.866 242.683 957.667 222.503 938.438 222.503C911.848 222.503 890.065 247.49 880.767 278.571H952.208V278.552Z" fill="white"/>
<path d="M1088.05 217.676C1105.99 217.676 1122 226.322 1132.26 239.775L1155.96 216.39L1121.68 358.619C1119.11 366.949 1121.05 371.756 1126.17 371.756C1134.18 371.756 1149.24 357.986 1170.7 305.775C1151.81 365.998 1135.47 385.862 1117.21 385.862C1102.15 385.862 1097.03 374.327 1101.52 355.75L1112.42 311.216H1109.85C1091.9 352.228 1069.17 385.862 1042.24 385.862C1013.1 385.862 1000.6 361.191 1000.6 331.079C1000.6 280.135 1035.2 217.676 1088.05 217.676ZM1049.92 374.327C1074.91 374.327 1100.85 328.843 1120.71 277.266L1121.34 272.775C1124.23 244.583 1111.73 222.8 1088.34 222.8C1048.93 222.8 1023 285.595 1023 330.11C1023 355.098 1031.01 374.327 1049.9 374.327H1049.92Z" fill="white"/>
<path d="M1192.15 346.134L1221.29 235.935L1190.86 231.761L1224.81 211.265L1229.62 191.085L1253.64 180.203L1244.03 220.879H1297.84L1294.63 233.699H1240.82L1213.91 345.183C1209.74 362.158 1215.83 372.742 1229.94 372.742C1246.91 372.742 1265.81 356.717 1281.83 328.525C1266.14 362.811 1243.71 385.879 1219.69 385.879C1197.59 385.879 1186.37 369.221 1192.13 346.152L1192.15 346.134Z" fill="white"/>
<path d="M1345.6 217.676C1356.16 217.676 1363.22 225.688 1359.05 243.297L1342.08 315.054H1343.68C1361.94 267.315 1387.56 217.676 1422.16 217.676C1433.04 217.676 1440.42 223.769 1440.42 232.098C1440.42 239.794 1435.3 245.868 1428.26 245.868C1415.75 245.868 1415.75 233.365 1404.87 233.365C1370.6 233.365 1335.35 348.688 1326.07 382.004H1305.26L1337.94 245.216C1340.51 234.334 1338.91 231.446 1334.42 231.446C1325.77 231.446 1309.43 251.943 1293.09 285.259C1306.86 243.614 1327.37 217.657 1345.63 217.657L1345.6 217.676Z" fill="white"/>
<path d="M1454.51 356.7L1483.02 245.533C1485.59 234.316 1483.99 231.446 1479.5 231.446C1470.85 231.446 1454.51 251.943 1438.17 285.259C1451.94 243.614 1472.45 217.657 1491.03 217.657C1501.28 217.657 1508.66 225.67 1504.17 243.614L1475.03 358.619C1472.79 367.582 1474.39 372.073 1479.18 372.073C1487.51 372.073 1502.57 357.967 1524.03 305.756C1504.8 365.98 1488.8 385.843 1470.54 385.843C1455.8 385.843 1449.7 375.595 1454.51 356.682V356.7Z" fill="white"/>
<path d="M1517.6 372.725L1647.66 237.856H1565.01L1568.84 220.881H1663.99L1669.43 215.123H1676.47L1582.3 313.787L1607.92 355.75C1612.73 364.396 1618.17 368.886 1626.81 368.886C1639.63 368.886 1653.4 357.986 1678.07 305.775C1655.66 365.998 1638.03 385.862 1616.88 385.862C1604.71 385.862 1596.7 380.421 1589.97 369.203L1566.91 330.129L1526.23 372.744H1517.58L1517.6 372.725Z" fill="white"/>
<path d="M42.7452 174.95H0L71.7202 0H126.204L197.943 174.95H155.459L141.708 140.701L56.478 140.944L42.7265 174.931L42.7452 174.95ZM63.4842 118.956H135.223L102.726 32.2359C100.472 25.2297 103.472 13.4906 103.472 6.24221H94.2294C94.4717 13.7329 97.4717 25.4906 95.4779 32.4781L63.4842 118.956Z" fill="white"/>
<path d="M393.371 96.4641V175.19H356.383V104.216C356.383 87.4641 353.644 60.4829 318.893 60.4829C279.651 60.4829 258.912 94.9734 258.912 112.47V175.209H221.421V34.2469H258.912V56.9984L253.415 72.2406H261.912C277.899 42.7438 300.65 31.5078 330.65 31.5078C363.389 31.5078 393.389 45.2593 393.389 96.4827L393.371 96.4641Z" fill="white"/>
<path d="M475.152 88.9756C507.891 88.9756 532.637 103.715 549.63 114.969C549.873 110.479 549.63 100.472 549.63 96.4662C549.63 71.4788 537.388 61.2304 505.134 61.2304H432.146L431.904 34.2305H518.382C565.86 34.2305 587.121 53.9819 587.121 99.9693V147.205H610.003L651.723 175.193H566.028L567.891 174.95L563.14 175.193C555.146 175.193 551.643 166.454 551.643 160.696C551.643 152.702 556.394 137.944 558.891 134.199L551.401 130.193C534.649 167.683 500.922 177.429 477.426 177.429C446.68 177.429 416.699 160.435 416.699 130.435C416.699 100.435 444.687 88.9383 475.19 88.9383L475.152 88.9756ZM491.643 155.963C527.382 155.963 542.624 126.224 542.624 126.224C542.624 126.224 513.891 107.479 488.643 107.479C477.891 107.479 454.152 110.982 454.152 130.975C454.152 147.466 472.655 155.963 491.643 155.963Z" fill="white"/>
<path d="M1490.04 198.67L1495.21 175.714C1495.78 173.142 1494.57 170.496 1492.22 169.267L1476.16 160.807L1501.78 153.242C1505.53 152.142 1508.88 150.055 1511.55 147.186L1532.4 124.695L1527.24 147.652C1526.66 150.223 1527.87 152.869 1530.22 154.099L1546.28 162.559L1520.66 170.124C1516.91 171.223 1513.56 173.31 1510.89 176.18L1490.04 198.67Z" fill="white"/>
</svg>
